 http://s1.postimage.org/4y2isdewf/enteng.png



Si Agimat si Enteng Kabisote at si Ako [2012] CAMRip EP



info:


Imdb                             : http://www.imdb.com/title/tt2529956/
Genres                           : Action | Adventure | Comedy
Director                         : Tony Y. Reyes
Writer                           : Jermyn Aven Jacob (dialogue)
Audio Language                   : Filipino | Tagalog
Country                          : Philippines



General
Complete name                            : Si Agimat si Enteng Kabisote at si Ako [2012] CAMRip EP.avi
Format                                   : AVI
Format/Info                              : Audio Video Interleave
File size                                : 1.46 GiB
Duration                                 : 1h 48mn
Overall bit rate                         : 1 923 Kbps
Writing application                      : VirtualDubMod

Video
ID                                       : 0
Format                                   : AVC
Format/Info                              : Advanced Video Codec
Format profile                           : High@L3.1
Format settings, CABAC                   : Yes
Format settings, ReFrames                : 3 frames
Codec ID                                 : H264
Duration                                 : 1h 48mn
Bit rate                                 : 1 721 Kbps
Width                                    : 1 280 pixels
Height                                   : 720 pixels
Display aspect ratio                     : 16:9
Frame rate                               : 25.000 fps
Color space                              : YUV
Chroma subsampling                       : 4:2:0
Bit depth                                : 8 bits
Scan type                                : Progressive
Bits/(Pixel*Frame)                       : 0.075
Stream size                              : 1.31 GiB (90%)
Writing library                          : x264 core 119 r2106kMod 07efeb4
Encoding settings                        : cabac=1 / ref=3 / deblock=1:0:0

Audio
ID                                       : 1
Format                                   : MPEG Audio
Format version                           : Version 1
Format profile                           : Layer 3
Codec ID                                 : 55
Codec ID/Hint                            : MP3
Duration                                 : 1h 48mn
Bit rate mode                            : Constant
Bit rate                                 : 192 Kbps
Channel(s)                               : 2 channels
Sampling rate                            : 44.1 KHz
Compression mode                         : Lossy
Stream size                              : 150 MiB (10%)
Alignment                                : Split accross interleaves
Interleave, duration                     : 40 ms (1.00 video frame)
Interleave, preload duration             : 500 ms
Writing library                          : LAMELAME_MAJOR_VERSI




cast:


Main Cast

Bong Revilla, Jr. as Agimat
Vic Sotto as Enteng Kabisote
Judy Ann Santos as Angelina Kalinisan Orteza ("AKO")

Supporting Cast

Jose Manalo as Jose
Wally Bayola as Bogart
Jimmy Santos as Jimboy
Ryzza Mae Dizon as Chichay
Ruby Rodriguez as Amy
Barbie Forteza as Barbie
Joyce Ching as Joyce
Amy Perez as Ina Magenta
Sweet as Che/Pink Hulk
Gwen Zamora as Faye
Aiza Seguerra as Aiza Kabisote
Sam Pinto as Samara
Alden Richards as Al
Yassi Pressman as Sol
TJ Trinidad as Byron
Oyo Sotto as Benok Kabisote
Mikylla Ramirez as Ada Kabisote
Jolo Revilla as Makisig
Jillian Ward as Bebeng
((Zea Usi)) as Marian (Engkantada)
King Gutierrez as Upaw
Edwin Reyes as Abawa
Jeffrey Santos as Punk #. 1
Rico Barrera as Punk # 2
Michael Conan as Punk #.3
Jun Cabatu as Cabatu
Marc Pingris as Sakuragi
Ronald Tubid as Tubid
Thou Reyes as Batoktok
Rez Cortez
Kiray Celis
Igiboy Flores
Derick Monasterio
Anton Revilla
Gian Sotto
Dianne Medina
IC Mendoza
Wahoo Sotto
Val Sotto as Coach Meg-B
Princess Velasco as Queenie
Rica Peralejo as Nica
Sofia and Patrick Aznar


Special Appreance

Ryan Agoncillo



plot:

The story begins with the establishment of the three different worlds apart, bound to meet for an adventure like no 

other ΓÇô the humble family-oriented story of ENTENG KABISOTE (VIC SOTTO), a low-profile technician married to the 

beautiful Fairy Princess of Encantasia, FAYE (GWEN ZAMORA); the battles of the AGIMAT (RAMON ΓÇ£BONGΓÇ¥ REVILLA, JR.), 

the brave village Warrior Hero of Amuleto; and the high tech-yuppie Kingdom of Diwatara ruled by 

Princess ANGELINA KALINISAN-ORTEZA (JUDY ANN SANTOS), also known in the human world as ΓÇ£AKO,ΓÇ¥ where she leads 

an environmental advocacy organization. 



ScreenShot:
 
http://s1.postimage.org/4rotpa5rj/image.jpg 
http://s1.postimage.org/ny20sgm9b/image.jpg 
http://s1.postimage.org/taqv6la5r/image.jpg 
http://s1.postimage.org/7cuecsv5b/image.jpg 
http://s1.postimage.org/xz6v1rzcf/image.jpg